<svg width="133" height="37" viewBox="0 0 133 37" fill="none" xmlns="http://www.w3.org/2000/svg">
<path d="M29.1237 26.2085H12.1049V0H0.00105082V34.1676C0.00105082 34.1676 -0.119216 36.685 2.2135 36.685H29.1237V26.2085ZM44.2002 23.5302L57.8652 0H44.4588L38.2004 12.0536L31.9965 0H18.4404L32.0986 23.6796V34.1883C32.0986 34.1883 31.883 36.6758 34.3678 36.6758H44.1933L44.2002 23.5302ZM76.7515 23.5302L90.4098 0H77.008L70.7518 12.0536L64.5479 0H60.4044L55.6822 8.13614L64.65 23.6888V33.878C64.65 33.878 64.4798 36.685 67.019 36.685H76.7515V23.5302ZM107.873 10.3708H118.539V0H93.0942L87.0741 10.3708H95.7718V33.9492C95.7718 33.9492 95.6221 36.685 98.0546 36.685H107.873V10.3708ZM133 36.685V0H120.898V34.1308C120.898 34.1308 120.803 36.685 123.302 36.685H133Z" fill="#045B56"/>
</svg>
