<svg id="Layer_1" data-name="Layer 1" xmlns="http://www.w3.org/2000/svg" xmlns:xlink="http://www.w3.org/1999/xlink" viewBox="0 0 586.11 159.57"><defs><clipPath id="clip-path" transform="translate(0)"><rect width="586.1" height="159.57" fill="none"/></clipPath></defs><title>lyyti_logo_green</title><g clip-path="url(#clip-path)"><path d="M128.34,114h-75V0H0V148.62s-.54,10.95,9.74,10.95h118.6Zm66.43-11.65L255,0H195.91L168.34,52.43,141,0H81.26l60.19,103v45.72s-1,10.81,10,10.81h43.29Zm143.45,0L398.41,0H339.36L311.79,52.43,284.44,0H266.19L245.38,35.39,284.9,103v44.32s-.75,12.21,10.44,12.21h42.88ZM475.37,45.12h47V0H410.25L383.71,45.12h38.34V147.67s-.66,11.9,10.06,11.9h43.26ZM586.1,159.57V0H532.78V148.47s-.42,11.1,10.59,11.1Z" transform="translate(0)" fill="#5ab12f"/></g></svg>